<?xml version="1.0" encoding="UTF-8" standalone="yes"?>
<svg width="1024" height="1024" viewBox="0 0 1024 1024" fill="none" version="1.2" baseProfile="tiny-ps" xmlns="http://www.w3.org/2000/svg">
  <title>bimi-svg-tiny-12-ps</title>
  <path d="M0 0C337.92 0 675.84 0 1024 0C1024 337.92 1024 675.84 1024 1024C686.08 1024 348.16 1024 0 1024C0 686.08 0 348.16 0 0Z" fill="#FBF8F2"/>
  <path d="M485.138 112.366C506.64 120.281 522.697 117.478 544.127 110.508C578.66 99.4461 613.941 101.042 646.917 116.627C662.545 124.784 685.138 140.764 693.322 157.131C697.559 156.697 701.02 155.74 704.832 153.926C743.023 136.503 790.445 135.672 829.695 150.138C876.189 167.956 904.128 205.046 930.882 245.351C932.53 247.831 934.178 250.311 935.827 252.791C936.617 253.98 937.406 255.169 938.22 256.394C940.09 259.2 941.97 261.999 943.858 264.793C950.449 274.55 956.722 284.449 962.571 294.67C963.246 295.847 963.246 295.847 963.934 297.047C975.37 317.219 983.574 338.869 984.717 362.274C984.792 363.608 984.868 364.942 984.945 366.317C986.045 402.988 970.527 438.215 947.419 466.011C946.857 466.687 946.295 467.362 945.716 468.059C933.771 482.176 919.455 492.911 904.206 503.218C882.521 517.939 866.616 535.274 851.258 556.344C825.131 592.156 795.237 623.56 749.752 632.33C748.824 632.448 747.895 632.567 746.938 632.689C747.516 637.751 750.788 640.954 754.005 644.636C754.584 645.31 755.162 645.983 755.759 646.677C759.7 651.219 763.81 655.529 768.133 659.712C770.256 661.835 772.179 664.048 774.111 666.345C780.704 674.006 788.509 680.492 796.184 687.035C809.571 698.655 809.571 698.655 810.117 705.666C810.304 718.246 810.304 718.246 806.383 723.605C799.983 730.005 794.855 732.125 785.913 732.155C785.051 732.165 784.189 732.175 783.301 732.185C780.504 732.208 777.709 732.208 774.912 732.201C773.484 732.199 773.484 732.199 772.027 732.198C757.38 732.146 743.552 731.399 729.455 727.101C728.495 726.814 727.536 726.526 726.548 726.23C712.853 722.014 700.059 716.474 687.494 709.618C686.263 708.96 685.033 708.301 683.765 707.623C670.07 699.998 658.051 690.07 646.698 679.313C645.656 678.331 644.613 677.35 643.538 676.339C637.003 670.014 631.295 663.5 625.918 656.177C623.404 652.62 623.404 652.62 619.89 650.173C619.913 650.969 619.935 651.764 619.959 652.584C620.117 662.703 619.13 672.577 617.932 682.604C617.728 684.37 617.524 686.136 617.322 687.901C616.789 692.53 616.247 697.157 615.703 701.785C614.736 710.008 613.779 718.233 612.833 726.459C612.68 727.786 612.68 727.786 612.524 729.139C605.507 765.576 605.507 765.576 611.731 799.368C614.538 799.235 614.538 799.235 617.559 798.202C622.305 792.418 621.905 785.567 622.319 778.43C622.889 771.149 624.674 766.634 629.952 761.318C635.584 756.91 638.713 756.038 645.729 755.963C646.56 755.954 647.391 755.944 648.247 755.935C650.01 755.919 651.772 755.906 653.535 755.897C656.211 755.877 658.886 755.826 661.562 755.774C663.278 755.762 664.993 755.753 666.709 755.745C667.501 755.724 668.293 755.704 669.109 755.683C675.422 755.711 678.886 757.488 683.997 760.903C686.028 762.98 686.028 762.98 687.348 764.983C687.802 765.644 688.256 766.305 688.723 766.986C692.426 773.964 691.207 782.436 691.206 790.112C691.209 792.762 691.23 795.411 691.252 798.061C691.309 812.116 690.626 826.128 685.672 839.434C685.372 840.254 685.072 841.073 684.763 841.917C678.727 857.693 670.263 870.252 658.354 882.124C657.677 882.871 656.999 883.617 656.301 884.387C635.996 906.43 602.049 919.783 572.652 921.603C571.316 921.653 569.98 921.703 568.604 921.754C567.764 921.785 566.924 921.817 566.059 921.85C521.018 923.318 483.341 906.906 450.789 876.46C444.026 869.918 438.382 863.286 433.397 855.316C432.966 854.653 432.535 853.99 432.092 853.307C418.375 832.1 409.874 809.234 406.588 784.215C406.35 782.447 406.35 782.447 406.108 780.643C403.265 758.556 402.412 736.399 401.58 714.165C401.043 699.814 400.386 685.484 399.449 671.153C399.397 670.357 399.345 669.561 399.292 668.741C399.013 664.494 398.726 660.247 398.429 656.001C392.115 662.228 392.115 662.228 386.191 668.822C357.389 702.021 313.401 727.365 269.22 731.513C261.444 732.045 253.674 732.196 245.884 732.274C245.061 732.288 244.238 732.302 243.39 732.317C241.018 732.352 238.649 732.352 236.277 732.342C234.899 732.344 233.521 732.346 232.102 732.349C224.302 731.163 219.961 726.06 215.433 720.108C212.721 714.685 213.795 707.361 214.267 701.459C216.088 697.452 216.088 697.452 218.929 694.465C219.482 693.855 220.035 693.245 220.605 692.617C224.307 688.684 228.3 685.327 232.552 682.008C247.74 669.769 261.95 655.245 273.712 639.683C275.262 637.737 276.815 635.793 278.374 633.855C277.736 633.692 277.099 633.529 276.442 633.361C231.261 621.623 202.13 595.968 174.637 559.258C162.441 543.005 162.441 543.005 148.994 527.787C147.55 526.232 147.55 526.232 146.076 524.645C138.616 516.848 130.691 510.706 121.806 504.648C105.089 493.183 88.3882 480.672 75.5628 464.845C74.6643 463.757 73.7658 462.67 72.84 461.549C47.9612 430.803 35.8837 392.054 39.6892 352.589C42.1199 333.901 49.1039 316.881 58.079 300.498C58.7167 299.333 59.3543 298.168 60.0112 296.968C66.2132 285.873 73.1181 275.335 80.2251 264.802C81.3396 263.142 82.4536 261.482 83.567 259.821C85.7259 256.602 87.8881 253.386 90.0529 250.171C92.7317 246.19 95.3858 242.194 98.0367 238.194C101.891 232.407 105.862 226.719 109.947 221.093C110.602 220.19 111.257 219.288 111.932 218.358C120.503 206.604 129.711 195.697 139.67 185.105C140.421 184.278 141.172 183.45 141.946 182.597C161.001 162.341 186.434 150.568 213.102 144.31C213.908 144.104 214.714 143.899 215.545 143.687C238.899 137.8 265.523 138.862 288.864 144.31C290.334 144.635 291.803 144.959 293.317 145.293C302.489 147.515 310.978 150.656 319.598 154.467C323.691 156.255 326.281 157.131 330.825 157.131C332.9 155.151 332.9 155.151 334.686 152.469C335.759 151.022 335.759 151.022 336.854 149.546C337.908 148.108 337.908 148.108 338.984 146.641C356.361 123.801 385.929 109.148 413.655 104.02C437.976 101.342 462.179 103.875 485.138 112.366Z" fill="#38091D"/>
  <path d="M528.545 320.964C537.231 328.461 539.749 336.618 541.075 347.7C544.97 376.618 554.92 405.768 574.002 428.198C574.883 429.348 575.763 430.499 576.671 431.685C592.424 451.851 615.706 466.097 640.441 472.49C641.676 472.641 642.91 472.793 644.183 472.949C654.36 474.414 654.36 474.414 657.88 478.901C659.67 482.684 661.029 486.422 662.295 490.411C662.773 491.736 663.251 493.061 663.743 494.426C665.681 499.894 667.382 505.239 668.415 510.954C667.089 511.647 665.764 512.339 664.399 513.053C652.296 519.503 641.592 526.597 631.116 535.431C630.5 535.932 629.884 536.432 629.249 536.948C625.917 539.661 622.92 542.386 620.189 545.703C619.603 546.408 619.017 547.112 618.413 547.838C617.989 548.36 617.566 548.881 617.129 549.418C612.505 547.877 612.184 546.158 609.976 541.887C609.304 540.592 608.631 539.297 607.939 537.963C606.899 535.916 606.899 535.916 605.837 533.828C605.13 532.473 604.424 531.118 603.695 529.722C598.48 519.584 598.48 519.584 598.48 515.616C597.71 515.616 596.941 515.616 596.149 515.616C596.176 516.241 596.203 516.866 596.23 517.51C596.391 524.471 595.759 531.16 594.821 538.055C593.975 544.371 593.348 550.69 592.779 557.035C591.61 569.658 590.13 582.235 588.588 594.816C587.804 601.226 587.03 607.638 586.255 614.049C586.101 615.317 585.948 616.585 585.79 617.891C584.32 630.06 582.919 642.236 581.543 654.416C581.359 656.041 581.175 657.667 580.991 659.293C580.9 660.101 580.808 660.91 580.714 661.744C579.967 668.323 579.193 674.899 578.414 681.475C575.654 704.821 573.057 728.171 570.804 751.572C570.668 752.975 570.668 752.975 570.529 754.405C570.362 756.135 570.197 757.865 570.034 759.595C569.698 763.08 569.29 766.517 568.714 769.971C565.627 788.505 568.13 807.751 579.061 823.207C584.955 830.702 592.752 836.03 601.976 838.483C605.046 838.73 607.946 838.873 611.01 838.847C611.831 838.84 612.652 838.834 613.498 838.827C625.147 838.557 632.833 835.491 641.606 827.992C642.309 827.415 643.013 826.838 643.737 826.244C645.371 824.9 646.988 823.535 648.6 822.165C642.917 842.801 628.356 857.882 610.122 868.501C583.57 882.349 552.455 884.603 523.882 875.781C494.413 865.697 470.228 843.534 456.561 815.654C454.799 811.642 453.167 807.613 451.616 803.515C451.161 802.313 450.706 801.111 450.237 799.873C445.201 785.706 444.055 771.066 442.947 756.163C442.839 754.75 442.839 754.75 442.729 753.307C441.047 731.188 439.957 709.035 438.9 686.879C438.198 672.337 437.328 657.831 436.161 643.318C435.478 634.755 434.909 626.191 434.428 617.614C434.362 616.431 434.296 615.248 434.227 614.03C434.094 611.634 433.96 609.239 433.827 606.844C432.796 588.399 431.637 570.042 429.46 551.694C428.094 540.076 427.506 528.47 427.139 516.782C426.37 516.782 425.6 516.782 424.808 516.782C424.503 517.798 424.198 518.813 423.884 519.86C422.482 523.762 420.77 526.943 418.616 530.477C414.924 536.656 411.604 542.932 408.49 549.418C404.822 547.836 402.898 546.228 400.476 543.08C388.466 529.047 371.843 520.032 356.038 510.954C360.993 484.219 360.993 484.219 367.694 475.986C374.069 471.91 381.713 470.971 389.042 469.649C409.306 465.4 425.417 452.702 439.96 438.688C440.727 437.995 441.493 437.302 442.282 436.589C467.17 413.479 478.761 375.861 482.896 343.212C484.367 332.795 488.763 326.054 496.81 319.37C507.04 311.868 518.639 314.218 528.545 320.964Z" fill="#FF95A5"/>
  <path d="M309.415 195.081C309.217 195.706 309.019 196.331 308.814 196.975C306.869 203.268 305.131 209.604 303.515 215.989C303.14 217.466 302.766 218.943 302.381 220.464C301.457 224.323 300.721 228.199 300.02 232.105C299.814 233.25 299.608 234.396 299.395 235.576C299.163 236.879 299.163 236.879 298.925 238.208C297.017 238.21 297.017 238.21 295.07 238.213C283.082 238.232 271.094 238.282 259.106 238.362C252.943 238.402 246.78 238.431 240.617 238.436C234.669 238.441 228.721 238.474 222.773 238.526C220.504 238.541 218.235 238.546 215.966 238.541C212.787 238.535 209.61 238.566 206.431 238.605C205.493 238.595 204.555 238.584 203.588 238.574C198.989 238.668 196.604 239.19 192.856 241.931C190.253 245.585 189.795 247.244 189.79 251.674C189.768 253.576 189.768 253.576 189.746 255.516C189.761 256.873 189.777 258.231 189.793 259.63C189.79 261.033 189.787 262.437 189.784 263.883C189.785 266.847 189.801 269.811 189.83 272.774C189.87 277.315 189.854 281.854 189.832 286.395C189.84 289.275 189.851 292.155 189.866 295.034C189.86 296.394 189.854 297.754 189.848 299.155C189.867 300.42 189.885 301.684 189.904 302.987C189.911 304.097 189.919 305.208 189.926 306.353C190.704 310.184 192.146 311.585 195.188 313.97C198.761 314.611 198.761 314.611 202.619 314.553C210.541 314.944 214.28 316.744 219.884 322.348C225.706 331.383 225.94 340.485 225.987 351.019C226.214 384.234 233.745 414.025 255.798 439.853C257.018 441.422 257.018 441.422 258.262 443.022C260.223 445.759 260.223 445.759 262.792 446.847C262.792 447.616 262.792 448.385 262.792 449.178C263.447 449.476 264.102 449.773 264.777 450.08C267.797 451.692 270.291 453.63 272.991 455.734C286.639 465.743 303.195 473.916 320.197 475.549C321.639 475.694 323.082 475.838 324.568 475.987C325.733 478.318 325.733 478.318 324.695 481.796C324.172 483.261 323.643 484.724 323.111 486.185C314.921 509.612 314.921 509.612 317.652 533.596C321.602 538.623 326.952 541.101 332.727 543.59C321.055 575.649 254.201 589.131 229.372 562.479C224.424 556.898 219.785 551.09 215.222 545.193C214.512 544.28 213.802 543.367 213.071 542.426C208.863 536.98 204.807 531.459 200.87 525.815C183.032 500.397 160.777 481.673 135.557 463.98C108.134 444.719 87.9771 419.103 79.7955 386.237C76.5779 367.385 79.1546 348.493 87.9546 331.454C88.4745 330.335 88.9943 329.215 89.5299 328.062C98.9541 308.216 111.441 289.919 124.088 272.009C125.226 270.39 126.364 268.771 127.502 267.151C129.839 263.831 132.183 260.515 134.532 257.203C136.909 253.85 139.269 250.486 141.617 247.113C164.627 214.115 187.721 189.281 229.168 181.577C255.902 178.7 286.058 180.483 309.415 195.081Z" fill="#FF95A5"/>
  <path d="M849.08 207.902C846.593 205.848 844.093 203.831 841.531 201.87C804.267 174.931 754.638 175.175 713.872 193.915C713.872 198.578 713.872 198.578 715.024 202.12C718.478 211.474 720.71 220.494 722.147 230.366C722.471 232.595 722.831 234.819 723.197 237.042C724.495 238.34 724.495 238.34 730.991 238.414L733.874 238.428C735.94 238.448 738.007 238.468 740.074 238.487C743.465 238.511 746.857 238.536 750.249 238.567C757.451 238.637 764.653 238.701 771.855 238.76L772.625 238.766C780.893 238.834 789.161 238.901 797.429 238.98C800.862 239.014 804.295 239.045 807.727 239.07C809.9 239.085 812.073 239.103 814.245 239.123L817.272 239.152C821.4 239.174 825.509 238.661 829.265 240.539C833.996 245.854 834.472 250.019 834.515 257.031L834.465 260.718C834.463 263.319 834.458 265.921 834.451 268.522C834.407 272.604 834.365 276.686 834.359 280.768C834.36 283.441 834.354 286.114 834.343 288.786L834.319 292.626C834.304 299.566 834.749 306.438 831.596 312.805C827.762 314.083 824.48 314.301 820.45 314.553C815.744 314.847 812.652 314.928 808.726 317.577L806.609 319.216L804.501 320.782C798.879 327.693 798.879 327.693 798.002 347.321C797.235 366.195 796.845 385.464 789.667 403.206L788.47 406.052C784.422 417.043 779.196 426.396 772.088 435.709L770.403 437.887C767.346 441.868 764.332 445.38 760.564 448.723L756.999 451.509C739.727 465.15 721.991 470.91 700.689 475.562L698.72 475.986C698.72 480.649 698.72 480.649 699.321 482.916C704.318 497.747 716.186 526.315 700.236 537.671L696.753 539.802L693.243 541.969L690.561 543.59C691.982 549.224 693.914 554.266 696.411 559.51C696.85 560.413 700.264 568.939 700.689 569.816C705.461 579.797 731.27 580.031 743.595 579.723C761.858 576.387 773.342 579.228 785.556 565.154C787.531 562.606 797.309 557.964 799.434 555.533C805.36 548.776 810.778 541.876 815.788 534.411C821.663 525.653 828.026 517.403 834.747 509.278L836.259 507.457C840.116 502.769 844.017 498.37 848.57 494.344C850.883 492.392 853.203 490.452 855.468 488.443C862.268 482.37 869.059 476.485 876.672 471.445C886.363 465.146 896.152 458.929 904.541 450.912C925.681 429.668 943.932 402.505 943.913 371.551L943.856 367.806C943.876 361.389 943.891 355.346 942.459 349.07L941.161 345.441C931.992 318.149 931.992 318.149 896.972 268.737C893.627 264.026 890.309 259.303 887.066 254.521C876.782 239.326 866.509 223.031 852.722 210.744L849.08 207.902Z" fill="#FF95A5"/>
  <path d="M463.272 148.458C464.277 148.736 465.282 149.014 466.318 149.3C470.878 150.58 475.338 152.09 479.795 153.685C480.672 153.998 481.549 154.312 482.452 154.635C484.196 155.262 485.937 155.896 487.676 156.537C495.868 159.504 503.412 160.325 512.081 160.332C512.972 160.346 513.863 160.361 514.781 160.375C525.971 160.404 535.24 156.646 545.519 152.61C573.342 142.002 600.196 139.946 628.047 152.205C651.895 163.469 668.548 184.849 677.826 209.141C680.9 218.895 682.482 228.03 682.402 238.208C681.567 238.212 680.732 238.216 679.872 238.22C671.919 238.265 663.966 238.332 656.013 238.422C651.926 238.468 647.84 238.505 643.753 238.523C614.139 238.665 587.544 240.623 565.534 262.58C560.889 267.575 557.353 273.306 553.887 279.153C551.856 282.5 551.856 282.5 549.525 284.831C548.833 284.212 548.14 283.593 547.426 282.955C534.267 271.74 520.029 268.316 502.902 269.678C493.767 271.574 486.395 275.521 478.748 280.765C476.093 282.5 476.093 282.5 472.597 283.665C472.214 282.959 471.83 282.253 471.436 281.525C461.052 263.234 445.649 249.558 425.655 242.733C409.448 238.342 393.107 238.589 376.416 238.513C372.398 238.49 368.381 238.441 364.364 238.394C356.538 238.309 348.712 238.248 340.886 238.208C341.037 235.24 341.198 232.273 341.364 229.306C341.405 228.474 341.447 227.641 341.49 226.783C342.658 206.496 354.943 185.075 368.86 170.604C369.715 169.702 370.57 168.801 371.451 167.872C383.743 155.888 398.839 148.616 415.483 144.961C416.817 144.63 416.817 144.63 418.179 144.292C433.598 141.849 448.517 143.906 463.272 148.458Z" fill="#FF95A5"/>
  <path d="M646.082 277.446C648.334 277.438 650.586 277.431 652.839 277.422C657.544 277.408 662.25 277.404 666.955 277.405C672.956 277.406 678.957 277.374 684.958 277.334C689.605 277.308 694.252 277.303 698.899 277.304C701.11 277.302 703.322 277.291 705.533 277.273C721.258 277.156 735.224 277.778 747.41 289.079C759.217 301.309 758.877 315.574 758.708 331.597C758.675 335.065 758.684 338.531 758.699 341.999C758.669 370.219 754.194 397.15 734.256 418.495C718.724 433.003 700.674 436.876 680.07 436.867C678.867 436.868 678.867 436.868 677.639 436.869C651.283 436.795 630.062 428.106 611.051 409.33C589.425 386.086 580.174 355.566 580.595 324.456C581.107 310.805 586.148 299.566 595.748 289.876C610.165 276.639 627.656 277.46 646.082 277.446Z" fill="#FFDCE1"/>
  <path d="M297.849 278.816C299.297 278.798 299.297 278.798 300.774 278.78C301.829 278.774 302.884 278.767 303.972 278.76C305.644 278.743 305.644 278.743 307.35 278.725C311.048 278.69 314.746 278.665 318.444 278.643C320.342 278.632 320.342 278.632 322.278 278.62C328.983 278.582 335.687 278.554 342.392 278.531C347.926 278.51 353.459 278.47 358.993 278.411C365.686 278.341 372.378 278.305 379.071 278.294C381.613 278.284 384.155 278.262 386.697 278.228C404.185 278.004 415.901 278.807 429.397 290.95C443.151 305.75 442.942 322.938 442.292 341.944C441.21 369.511 425.701 396.657 406.159 415.376C386.744 432.495 362.784 438.649 337.389 437.522C317.917 436.223 300.574 430.16 286.727 415.918C271.737 398.583 266.166 377.773 266.011 355.262C266.002 353.957 265.992 352.652 265.982 351.308C265.966 348.55 265.954 345.792 265.945 343.034C265.931 340.23 265.907 337.425 265.873 334.621C265.823 330.55 265.804 326.479 265.792 322.407C265.772 321.17 265.752 319.932 265.731 318.657C265.766 306.165 269.069 296.099 277.758 287.021C283.431 282.087 290.272 278.888 297.849 278.816Z" fill="#FFDCE1"/>
  <path d="M657.924 562.24C658.351 563.288 658.778 564.337 659.218 565.418C673.3 599.185 692.997 631.858 716.204 660.149C716.759 660.826 717.314 661.503 717.887 662.2C724 669.615 730.213 676.83 737.184 683.46C738.352 684.623 739.519 685.788 740.681 686.957C696.428 678.707 662.444 646.228 636.039 611.853C634.795 610.261 633.503 608.707 632.204 607.16C631.233 605.984 631.233 605.984 630.242 604.783C629.422 603.828 629.422 603.828 628.585 602.853C627.061 599.461 627.817 597.247 628.785 593.71C633.566 584.41 645.646 562.24 657.924 562.24Z" fill="#FF95A5"/>
  <path d="M365.363 562.24C378.468 566.73 385.356 580.169 392.171 591.379C393.325 593.11 393.325 593.11 394.503 594.876C394.298 601.528 392.377 605.068 388.238 610.174C387.717 610.822 387.196 611.47 386.659 612.137C385.016 614.168 383.349 616.177 381.681 618.188C380.664 619.445 379.647 620.703 378.631 621.962C354.852 651.084 322.983 676.754 286.103 686.957C285.334 686.572 284.565 686.188 283.772 685.791C284.435 685.142 285.097 684.493 285.78 683.825C291.599 678.074 297.162 672.24 302.422 665.977C302.932 665.385 303.442 664.793 303.967 664.183C329.931 633.978 349.024 598.383 365.363 562.24Z" fill="#FF95A5"/>
  <path d="M676.865 314.553C684.246 318.857 689.845 325.619 692.378 333.79C694.129 341.71 693.047 346.651 688.872 353.473C684.169 359.869 678.371 364.095 670.746 366.422C663.146 367.56 657.505 366.48 650.981 362.415C645.92 358.544 641.635 353.742 639.275 347.772C638.247 339.83 637.944 332.377 642.408 325.481C645.274 321.856 648.201 318.834 652.097 316.302C653.106 315.629 654.116 314.955 655.156 314.262C662.246 311.636 669.86 311.487 676.865 314.553Z" fill="#38091D"/>
  <path d="M372.006 316.743C378.252 321.144 382.452 327.462 384.012 334.951C384.908 344.057 382.188 350.509 377.165 358.044C371.506 363.869 366.086 366.54 358.078 366.713C350.358 366.574 344.613 364.557 338.846 359.355C333.435 353.499 330.833 346.737 329.886 338.885C330.846 331.476 333.199 325.154 338.555 319.798C349.446 311.871 359.849 310.069 372.006 316.743Z" fill="#38091D"/>
</svg>